Patient4_TMGait_0pt8_01_left_36_GRF.mot
version=1
nRows=65
nColumns=19
inDegrees=no
endheader
time	F1x	F1y	F1z	M1x	M1y	M1z	F2x	F2y	F2z	M2x	M2y	M2z	EC1x	EC1y	EC1z	EC2x	EC2y	EC2z
39.74	9.5426	-0.29382	-0.99455	-0.38387	4.0412	13.2833	-56.2093	733.6754	-59.5308	280.6775	85.9258	838.2748	-0.0592	0.0182	-0.0073	-0.0462	0.0165	0.9585
39.7514	6.1345	0.52733	-0.51832	-0.56473	2.4788	9.6621	-49.3014	732.5391	-58.0546	279.4804	82.9091	836.0452	-0.0592	0.0182	-0.0073	-0.0462	0.0165	0.9585
39.7629	3.2864	1.2231	-0.15713	-0.70727	1.2019	6.6363	-42.7314	731.5403	-56.7396	278.3011	79.8633	832.7451	-0.0592	0.0182	-0.0073	-0.0462	0.0165	0.9585
39.7743	1.1593	1.7594	0.08649	-0.81318	0.26912	4.3639	-36.7587	730.9035	-55.6927	277.2506	76.9442	828.6272	-0.0592	0.0182	-0.0073	-0.0462	0.0165	0.9585
39.7857	-0.30305	2.1695	0.23642	-0.89583	-0.35483	2.8751	-31.4105	730.8329	-54.9674	276.4224	74.2401	824.0787	-0.0592	0.0182	-0.0073	-0.0462	0.0165	0.9585
39.7971	-1.1844	2.4524	0.31182	-0.95486	-0.71915	2.0324	-26.5497	731.4664	-54.5818	275.8833	71.7874	819.4318	-0.0592	0.0182	-0.0073	-0.0462	0.0165	0.9585
39.8086	-1.6594	2.6394	0.34504	-0.9921	-0.91319	1.6974	-21.9976	732.9095	-54.504	275.6884	69.567	814.9959	-0.0592	0.0182	-0.0073	-0.0462	0.0165	0.9585
39.82	-1.8608	2.7078	0.35609	-0.99647	-1.0063	1.6339	-17.5735	735.1916	-54.6793	275.8696	67.5304	810.9812	-0.0592	0.0182	-0.0073	-0.0462	0.0165	0.9585
39.8314	-1.9188	2.6349	0.37385	-0.95303	-1.0737	1.6553	-13.1368	738.28	-55.0173	276.4305	65.5975	807.5052	-0.0592	0.0182	-0.0073	-0.0462	0.0165	0.9585
39.8429	-1.9191	2.3558	0.41623	-0.83693	-1.1601	1.5289	-8.5804	742.0376	-55.4374	277.3311	63.6942	804.5427	-0.0592	0.0182	-0.0073	-0.0462	0.0165	0.9585
39.8543	-1.9245	1.7988	0.50063	-0.61876	-1.303	1.0852	-3.858	746.2627	-55.8696	278.4985	61.7537	801.9722	-0.0592	0.0182	-0.0073	-0.0462	0.0165	0.9585
39.8657	-1.9271	0.87004	0.63583	-0.26446	-1.5099	0.14866	0.99482	750.7319	-56.2788	279.8368	59.7547	799.6395	-0.0592	0.0182	-0.0073	-0.0462	0.0165	0.9585
39.8771	-1.9377	-0.48281	0.81507	0.24614	-1.7688	-1.3781	5.8685	755.1571	-56.6836	281.2178	57.7429	797.331	-0.0592	0.0182	-0.0073	-0.0462	0.0165	0.9585
39.8886	-1.8804	-2.2814	1.0183	0.91615	-2.0253	-3.5182	10.604	759.2164	-57.1433	282.4948	55.8208	794.7966	-0.0592	0.0182	-0.0073	-0.0462	0.0165	0.9585
39.9	-1.6743	-4.426	1.1916	1.7053	-2.1776	-6.137	15.0332	762.5809	-57.7534	283.5214	54.1381	791.7745	-0.0592	0.0182	-0.0073	-0.0462	0.0165	0.9585
39.9114	-1.176	-6.6509	1.2525	2.5125	-2.0666	-8.9094	19.0274	765.0108	-58.6039	284.1853	52.8301	788.0893	-0.0592	0.0182	-0.0073	-0.0462	0.0165	0.9585
39.9229	-0.20522	-8.4277	1.0723	3.14	-1.4639	-11.1637	22.5273	766.4143	-59.7362	284.4345	51.9649	783.6845	-0.0592	0.0182	-0.0073	-0.0462	0.0165	0.9585
39.9343	1.4292	-8.9119	0.4873	3.2714	-0.091797	-11.841	25.5253	766.8382	-61.1235	284.2767	51.525	778.6068	-0.0592	0.0182	-0.0073	-0.0462	0.0165	0.9585
39.9457	3.8916	-6.8711	-0.70051	2.4472	2.3591	-9.3753	28.13	766.4571	-62.6388	283.7769	51.364	773.003	-0.0592	0.0182	-0.0073	-0.0462	0.0165	0.9585
39.9571	7.2782	-0.68471	-2.697	0.063397	6.1775	-1.7258	30.4981	765.5077	-64.1079	283.0297	51.27	767.0726	-0.0592	0.0182	-0.0073	-0.0462	0.0165	0.9585
39.9686	11.4704	11.5665	-5.6547	-4.595	11.5107	13.5255	32.8366	764.0791	-65.3493	282.0808	51.0057	760.8661	-0.0592	0.0182	-0.0073	-0.0462	0.0165	0.9585
39.98	16.0911	31.8681	-9.6145	-12.2632	18.2528	38.8873	35.3185	761.8543	-66.1728	280.8282	50.3341	754.0533	-0.0592	0.0182	-0.0073	-0.0462	0.0165	0.9585
39.9914	20.2871	61.81	-14.3833	-23.5205	25.8197	76.3729	38.0724	757.859	-66.4214	278.9297	49.0628	745.6679	-0.0592	0.0182	-0.0073	-0.0462	0.0165	0.9585
40.0029	22.6022	101.8404	-19.3993	-38.5071	32.9305	126.5767	41.1441	750.5553	-65.9419	275.8337	47.0303	734.2359	-0.0592	0.0182	-0.0073	-0.0462	0.0165	0.9585
40.0143	21.2276	150.5999	-23.6187	-56.6708	37.6005	187.8766	44.4784	738.1035	-64.599	270.8839	44.1307	718.0029	-0.0592	0.0182	-0.0073	-0.0462	0.0165	0.9585
40.0257	15.0513	204.7547	-25.7234	-76.6988	37.7272	256.1574	47.869	718.7973	-62.2654	263.4732	40.323	695.3935	-0.0592	0.0182	-0.0073	-0.0462	0.0165	0.9585
40.0371	4.9916	259.066	-24.0109	-96.5574	31.5592	324.8252	51.0056	691.343	-58.8804	253.147	35.6761	665.2699	-0.0592	0.0182	-0.0073	-0.0462	0.0165	0.9585
40.0486	-6.1758	308.4145	-17.6975	-114.3373	19.2674	387.1556	53.5264	655.0651	-54.4932	239.6717	30.3848	627.1125	-0.0592	0.0182	-0.0073	-0.0462	0.0165	0.9585
40.06	-16.4985	350.7422	-8.2636	-129.3277	3.3994	440.1966	55.0927	610.0632	-49.2578	223.0809	24.7281	581.1307	-0.0592	0.0182	-0.0073	-0.0462	0.0165	0.9585
40.0714	-24.8981	386.425	2.8108	-141.7438	-13.7016	484.2375	55.4068	557.1614	-43.4424	203.6629	19.0656	528.2194	-0.0592	0.0182	-0.0073	-0.0462	0.0165	0.9585
40.0829	-30.8956	417.0903	14.1089	-152.2736	-30.0907	521.307	54.2767	497.8077	-37.3272	181.9335	13.7285	469.8244	-0.0592	0.0182	-0.0073	-0.0462	0.0165	0.9585
40.0943	-34.7124	444.801	24.5271	-161.7475	-44.4481	554.0532	51.5372	434.0417	-31.144	158.6223	8.9867	407.937	-0.0592	0.0182	-0.0073	-0.0462	0.0165	0.9585
40.1057	-36.7748	471.2887	33.241	-170.853	-55.929	584.6875	47.1913	368.3132	-25.0901	134.6163	5.0213	344.8504	-0.0592	0.0182	-0.0073	-0.0462	0.0165	0.9585
40.1171	-37.5381	497.6708	39.8569	-180.0231	-64.2347	614.651	41.3879	303.3725	-19.3611	110.9092	1.9522	283.1173	-0.0592	0.0182	-0.0073	-0.0462	0.0165	0.9585
40.1286	-37.4014	524.7211	44.4494	-189.5188	-69.6204	644.9472	34.5337	241.975	-14.1529	88.5013	-0.198	225.2185	-0.0592	0.0182	-0.0073	-0.0462	0.0165	0.9585
40.14	-36.5942	552.8842	47.4127	-199.4487	-72.6807	676.186	27.1936	186.5413	-9.6747	68.2659	-1.4728	173.3086	-0.0592	0.0182	-0.0073	-0.0462	0.0165	0.9585
40.1514	-35.2792	582.1414	49.4548	-209.7363	-74.338	708.3993	20.0963	138.7291	-6.0706	50.8019	-2.0286	128.7687	-0.0592	0.0182	-0.0073	-0.0462	0.0165	0.9585
40.1629	-33.7069	611.7768	51.3148	-220.0617	-75.5742	740.7465	13.7773	99.2406	-3.3793	36.364	-2.0492	92.1361	-0.0592	0.0182	-0.0073	-0.0462	0.0165	0.9585
40.1743	-32.1632	640.752	53.6605	-230.0076	-77.2784	772.0337	8.5807	67.8701	-1.5271	24.8857	-1.7373	63.1152	-0.0592	0.0182	-0.0073	-0.0462	0.0165	0.9585
40.1857	-30.8266	668.4336	56.6921	-239.3406	-79.7628	801.4976	4.5629	43.8852	-0.37056	16.1034	-1.2533	40.9958	-0.0592	0.0182	-0.0073	-0.0462	0.0165	0.9585
40.1971	-29.6937	694.6515	60.1489	-248.0366	-82.7593	828.932	1.6739	26.2439	0.26373	9.6433	-0.72901	24.7727	-0.0592	0.0182	-0.0073	-0.0462	0.0165	0.9585
40.2086	-28.6969	719.327	63.6406	-256.1222	-85.8135	854.2073	-0.24668	13.9071	0.55165	5.1233	-0.26155	13.4846	-0.0592	0.0182	-0.0073	-0.0462	0.0165	0.9585
40.22	-27.7205	742.1069	66.8428	-263.5277	-88.5252	876.8751	-1.3283	5.8479	0.60899	2.1705	0.098282	6.1569	-0.0592	0.0182	-0.0073	-0.0462	0.0165	0.9585
40.2314	-26.6179	762.3326	69.6658	-270.0551	-90.7409	896.1874	-1.7785	1.1496	0.54097	0.44741	0.32963	1.9274	-0.0592	0.0182	-0.0073	-0.0462	0.0165	0.9585
40.2429	-25.3276	779.2067	72.1185	-275.4387	-92.4513	911.2256	-1.8031	-1.0935	0.41908	-0.37596	0.4468	-0.077657	-0.0592	0.0182	-0.0073	-0.0462	0.0165	0.9585
40.2543	-23.8188	792.0034	74.2578	-279.4308	-93.7117	921.2112	-1.6081	-1.7026	0.28581	-0.59981	0.483	-0.60217	-0.0592	0.0182	-0.0073	-0.0462	0.0165	0.9585
40.2657	-22.0768	800.3492	76.0314	-281.9042	-94.4711	925.7875	-1.3005	-1.3686	0.16099	-0.47579	0.46576	-0.28852	-0.0592	0.0182	-0.0073	-0.0462	0.0165	0.9585
40.2771	-20.1215	804.2771	77.384	-282.8698	-94.6783	925.07	-0.98983	-0.57748	0.061509	-0.18221	0.42052	0.43779	-0.0592	0.0182	-0.0073	-0.0462	0.0165	0.9585
40.2886	-17.9848	804.1776	78.2566	-282.4584	-94.2798	919.6161	-0.70349	0.33219	-0.024713	0.15846	0.37648	1.2496	-0.0592	0.0182	-0.0073	-0.0462	0.0165	0.9585
40.3	-15.7195	800.6563	78.6498	-280.8691	-93.2965	910.2376	-0.49207	1.2011	-0.090701	0.48457	0.34683	2.0209	-0.0592	0.0182	-0.0073	-0.0462	0.0165	0.9585
40.3114	-13.4342	794.4001	78.6257	-278.3291	-91.8305	897.8318	-0.33478	1.9203	-0.14852	0.75854	0.3366	2.652	-0.0592	0.0182	-0.0073	-0.0462	0.0165	0.9585
40.3229	-11.2004	786.1477	78.2881	-275.0785	-90.0289	883.3255	-0.24495	2.4849	-0.19636	0.9759	0.34231	3.1611	-0.0592	0.0182	-0.0073	-0.0462	0.0165	0.9585
40.3343	-9.1065	776.5867	77.7751	-271.3469	-88.0698	867.544	-0.19241	2.8883	-0.23288	1.1346	0.35266	3.5308	-0.0592	0.0182	-0.0073	-0.0462	0.0165	0.9585
40.3457	-7.1815	766.4228	77.1575	-267.3781	-86.0495	851.2772	-0.18573	3.1872	-0.26176	1.2516	0.37334	3.8456	-0.0592	0.0182	-0.0073	-0.0462	0.0165	0.9585
40.3571	-5.4285	756.3059	76.5012	-263.4079	-84.0408	835.2251	-0.19781	3.4139	-0.27602	1.3401	0.39085	4.1256	-0.0592	0.0182	-0.0073	-0.0462	0.0165	0.9585
40.3686	-3.8336	746.8137	75.7708	-259.6573	-82.0096	819.9679	-0.24544	3.611	-0.28552	1.414	0.41842	4.4131	-0.0592	0.0182	-0.0073	-0.0462	0.0165	0.9585
40.38	-2.3469	738.4142	74.9699	-256.3091	-79.9442	805.9826	-0.29422	3.773	-0.28655	1.4745	0.44399	4.6732	-0.0592	0.0182	-0.0073	-0.0462	0.0165	0.9585
40.3914	-0.89745	731.4707	74.067	-253.5068	-77.797	793.6013	-0.37327	3.8969	-0.29319	1.5182	0.48599	4.8965	-0.0592	0.0182	-0.0073	-0.0462	0.0165	0.9585
40.4029	0.5783	726.2183	73.0948	-251.3341	-75.5842	783.0279	-0.44984	3.934	-0.2989	1.5301	0.52933	4.9902	-0.0592	0.0182	-0.0073	-0.0462	0.0165	0.9585
40.4143	2.1665	722.7652	72.0828	-249.8176	-73.3143	774.3322	-0.54401	3.8241	-0.31662	1.4854	0.58941	4.8841	-0.0592	0.0182	-0.0073	-0.0462	0.0165	0.9585
40.4257	3.9311	721.062	71.0875	-248.9225	-71.024	767.4185	-0.63261	3.4624	-0.32883	1.3452	0.63833	4.4295	-0.0592	0.0182	-0.0073	-0.0462	0.0165	0.9585
40.4371	5.9424	720.8709	70.1706	-248.552	-68.7496	762.0069	-0.73561	2.734	-0.34456	1.0612	0.68449	3.4981	-0.0592	0.0182	-0.0073	-0.0462	0.0165	0.9585
40.4486	8.306	721.834	69.3602	-248.5714	-66.488	757.7094	-0.82102	1.4845	-0.35391	0.57562	0.70932	1.8933	-0.0592	0.0182	-0.0073	-0.0462	0.0165	0.9585
40.46	11.1191	723.5841	68.6964	-248.8443	-64.2447	754.1189	-0.87863	-0.39126	-0.35691	-0.15647	0.70947	-0.52085	-0.0592	0.0182	-0.0073	-0.0462	0.0165	0.9585
40.4714	14.5006	725.8134	68.1739	-249.2554	-61.9768	750.9045	-0.84224	-2.9542	-0.33926	-1.1592	0.64774	-3.8243	-0.0592	0.0182	-0.0073	-0.0462	0.0165	0.9585
